<svg width="24" height="24" viewBox="0 0 24 24" fill="none" xmlns="http://www.w3.org/2000/svg">
<path d="M9.13437 17.1156L5.26775 13.2502H21.7499C22.0814 13.2502 22.3993 13.1185 22.6338 12.8841C22.8682 12.6497 22.9999 12.3317 22.9999 12.0002C22.9999 11.6687 22.8682 11.3508 22.6338 11.1163C22.3993 10.8819 22.0814 10.7502 21.7499 10.7502H5.26775L9.13437 6.88482L9.13443 6.88477C9.25059 6.76861 9.34273 6.6307 9.4056 6.47893C9.46847 6.32716 9.50082 6.16449 9.50082 6.00021C9.50082 5.83594 9.46847 5.67327 9.4056 5.5215C9.34273 5.36973 9.25059 5.23182 9.13443 5.11566C9.01827 4.9995 8.88036 4.90736 8.72859 4.84449C8.57682 4.78162 8.41415 4.74927 8.24988 4.74927C8.0856 4.74927 7.92293 4.78162 7.77116 4.84449C7.61939 4.90736 7.48148 4.9995 7.36532 5.11566L1.36577 11.1152C1.3657 11.1153 1.36564 11.1153 1.36557 11.1154C1.24925 11.2315 1.15697 11.3694 1.09399 11.5211C1.03097 11.673 0.998535 11.8358 0.998535 12.0002C0.998535 12.1646 1.03097 12.3274 1.09399 12.4793C1.15697 12.6311 1.24925 12.7689 1.36557 12.885C1.36564 12.8851 1.3657 12.8851 1.36577 12.8852L7.36532 18.8848C7.48148 19.0009 7.61938 19.0931 7.77116 19.1559L7.9625 18.694L7.77116 19.1559C7.92293 19.2188 8.0856 19.2512 8.24988 19.2512C8.41415 19.2512 8.57682 19.2188 8.72859 19.1559L8.53725 18.694L8.72859 19.1559C8.88037 19.0931 9.01827 19.0009 9.13443 18.8848C9.25059 18.7686 9.34273 18.6307 9.4056 18.4789C9.46847 18.3272 9.50082 18.1645 9.50082 18.0002C9.50082 17.8359 9.46847 17.6733 9.4056 17.5215C9.34273 17.3697 9.25059 17.2318 9.13443 17.1157L9.13437 17.1156Z" fill="#259EC5" stroke="#259EC5"/>
</svg>
