<svg width="20" height="21" viewBox="0 0 20 21" fill="none" xmlns="http://www.w3.org/2000/svg">
<path fill-rule="evenodd" clip-rule="evenodd" d="M3.125 15.4275C3.125 15.2617 3.19085 15.1028 3.30806 14.9855C3.42527 14.8683 3.58424 14.8025 3.75 14.8025H16.25C16.4158 14.8025 16.5747 14.8683 16.6919 14.9855C16.8092 15.1028 16.875 15.2617 16.875 15.4275C16.875 15.5933 16.8092 15.7522 16.6919 15.8694C16.5747 15.9866 16.4158 16.0525 16.25 16.0525H3.75C3.58424 16.0525 3.42527 15.9866 3.30806 15.8694C3.19085 15.7522 3.125 15.5933 3.125 15.4275ZM3.125 10.4275C3.125 10.2617 3.19085 10.1028 3.30806 9.98555C3.42527 9.86834 3.58424 9.80249 3.75 9.80249H16.25C16.4158 9.80249 16.5747 9.86834 16.6919 9.98555C16.8092 10.1028 16.875 10.2617 16.875 10.4275C16.875 10.5933 16.8092 10.7522 16.6919 10.8694C16.5747 10.9866 16.4158 11.0525 16.25 11.0525H3.75C3.58424 11.0525 3.42527 10.9866 3.30806 10.8694C3.19085 10.7522 3.125 10.5933 3.125 10.4275ZM3.125 5.42749C3.125 5.26173 3.19085 5.10276 3.30806 4.98555C3.42527 4.86834 3.58424 4.80249 3.75 4.80249H16.25C16.4158 4.80249 16.5747 4.86834 16.6919 4.98555C16.8092 5.10276 16.875 5.26173 16.875 5.42749C16.875 5.59325 16.8092 5.75222 16.6919 5.86943C16.5747 5.98664 16.4158 6.05249 16.25 6.05249H3.75C3.58424 6.05249 3.42527 5.98664 3.30806 5.86943C3.19085 5.75222 3.125 5.59325 3.125 5.42749Z" fill="#FF583B"/>
</svg>
