<svg width="20" height="21" viewBox="0 0 20 21" fill="none" xmlns="http://www.w3.org/2000/svg">
<g clip-path="url(#clip0_19_1660)">
<path fill-rule="evenodd" clip-rule="evenodd" d="M17.5 0.92749H2.5C1.83696 0.92749 1.20107 1.19088 0.732233 1.65972C0.263392 2.12856 0 2.76445 0 3.42749L0 18.4275C0 19.0905 0.263392 19.7264 0.732233 20.1953C1.20107 20.6641 1.83696 20.9275 2.5 20.9275H17.5C18.163 20.9275 18.7989 20.6641 19.2678 20.1953C19.7366 19.7264 20 19.0905 20 18.4275V3.42749C20 2.76445 19.7366 2.12856 19.2678 1.65972C18.7989 1.19088 18.163 0.92749 17.5 0.92749V0.92749ZM1.25 5.74874C1.25 5.15749 1.81 4.67749 2.5 4.67749H17.5C18.19 4.67749 18.75 5.15749 18.75 5.74874V18.6062C18.75 19.1975 18.19 19.6775 17.5 19.6775H2.5C1.81 19.6775 1.25 19.1975 1.25 18.6062V5.74874Z" fill="#7C7C7C"/>
<path fill-rule="evenodd" clip-rule="evenodd" d="M8.125 9.67749C8.45652 9.67749 8.77446 9.54579 9.00888 9.31137C9.2433 9.07695 9.375 8.75901 9.375 8.42749C9.375 8.09597 9.2433 7.77803 9.00888 7.54361C8.77446 7.30919 8.45652 7.17749 8.125 7.17749C7.79348 7.17749 7.47554 7.30919 7.24112 7.54361C7.0067 7.77803 6.875 8.09597 6.875 8.42749C6.875 8.75901 7.0067 9.07695 7.24112 9.31137C7.47554 9.54579 7.79348 9.67749 8.125 9.67749ZM11.875 9.67749C12.2065 9.67749 12.5245 9.54579 12.7589 9.31137C12.9933 9.07695 13.125 8.75901 13.125 8.42749C13.125 8.09597 12.9933 7.77803 12.7589 7.54361C12.5245 7.30919 12.2065 7.17749 11.875 7.17749C11.5435 7.17749 11.2255 7.30919 10.9911 7.54361C10.7567 7.77803 10.625 8.09597 10.625 8.42749C10.625 8.75901 10.7567 9.07695 10.9911 9.31137C11.2255 9.54579 11.5435 9.67749 11.875 9.67749V9.67749ZM15.625 9.67749C15.9565 9.67749 16.2745 9.54579 16.5089 9.31137C16.7433 9.07695 16.875 8.75901 16.875 8.42749C16.875 8.09597 16.7433 7.77803 16.5089 7.54361C16.2745 7.30919 15.9565 7.17749 15.625 7.17749C15.2935 7.17749 14.9755 7.30919 14.7411 7.54361C14.5067 7.77803 14.375 8.09597 14.375 8.42749C14.375 8.75901 14.5067 9.07695 14.7411 9.31137C14.9755 9.54579 15.2935 9.67749 15.625 9.67749V9.67749ZM4.375 13.4275C4.70652 13.4275 5.02446 13.2958 5.25888 13.0614C5.4933 12.827 5.625 12.509 5.625 12.1775C5.625 11.846 5.4933 11.528 5.25888 11.2936C5.02446 11.0592 4.70652 10.9275 4.375 10.9275C4.04348 10.9275 3.72554 11.0592 3.49112 11.2936C3.2567 11.528 3.125 11.846 3.125 12.1775C3.125 12.509 3.2567 12.827 3.49112 13.0614C3.72554 13.2958 4.04348 13.4275 4.375 13.4275V13.4275ZM8.125 13.4275C8.45652 13.4275 8.77446 13.2958 9.00888 13.0614C9.2433 12.827 9.375 12.509 9.375 12.1775C9.375 11.846 9.2433 11.528 9.00888 11.2936C8.77446 11.0592 8.45652 10.9275 8.125 10.9275C7.79348 10.9275 7.47554 11.0592 7.24112 11.2936C7.0067 11.528 6.875 11.846 6.875 12.1775C6.875 12.509 7.0067 12.827 7.24112 13.0614C7.47554 13.2958 7.79348 13.4275 8.125 13.4275ZM11.875 13.4275C12.2065 13.4275 12.5245 13.2958 12.7589 13.0614C12.9933 12.827 13.125 12.509 13.125 12.1775C13.125 11.846 12.9933 11.528 12.7589 11.2936C12.5245 11.0592 12.2065 10.9275 11.875 10.9275C11.5435 10.9275 11.2255 11.0592 10.9911 11.2936C10.7567 11.528 10.625 11.846 10.625 12.1775C10.625 12.509 10.7567 12.827 10.9911 13.0614C11.2255 13.2958 11.5435 13.4275 11.875 13.4275V13.4275ZM15.625 13.4275C15.9565 13.4275 16.2745 13.2958 16.5089 13.0614C16.7433 12.827 16.875 12.509 16.875 12.1775C16.875 11.846 16.7433 11.528 16.5089 11.2936C16.2745 11.0592 15.9565 10.9275 15.625 10.9275C15.2935 10.9275 14.9755 11.0592 14.7411 11.2936C14.5067 11.528 14.375 11.846 14.375 12.1775C14.375 12.509 14.5067 12.827 14.7411 13.0614C14.9755 13.2958 15.2935 13.4275 15.625 13.4275V13.4275ZM4.375 17.1775C4.70652 17.1775 5.02446 17.0458 5.25888 16.8114C5.4933 16.577 5.625 16.259 5.625 15.9275C5.625 15.596 5.4933 15.278 5.25888 15.0436C5.02446 14.8092 4.70652 14.6775 4.375 14.6775C4.04348 14.6775 3.72554 14.8092 3.49112 15.0436C3.2567 15.278 3.125 15.596 3.125 15.9275C3.125 16.259 3.2567 16.577 3.49112 16.8114C3.72554 17.0458 4.04348 17.1775 4.375 17.1775V17.1775ZM8.125 17.1775C8.45652 17.1775 8.77446 17.0458 9.00888 16.8114C9.2433 16.577 9.375 16.259 9.375 15.9275C9.375 15.596 9.2433 15.278 9.00888 15.0436C8.77446 14.8092 8.45652 14.6775 8.125 14.6775C7.79348 14.6775 7.47554 14.8092 7.24112 15.0436C7.0067 15.278 6.875 15.596 6.875 15.9275C6.875 16.259 7.0067 16.577 7.24112 16.8114C7.47554 17.0458 7.79348 17.1775 8.125 17.1775ZM11.875 17.1775C12.2065 17.1775 12.5245 17.0458 12.7589 16.8114C12.9933 16.577 13.125 16.259 13.125 15.9275C13.125 15.596 12.9933 15.278 12.7589 15.0436C12.5245 14.8092 12.2065 14.6775 11.875 14.6775C11.5435 14.6775 11.2255 14.8092 10.9911 15.0436C10.7567 15.278 10.625 15.596 10.625 15.9275C10.625 16.259 10.7567 16.577 10.9911 16.8114C11.2255 17.0458 11.5435 17.1775 11.875 17.1775V17.1775Z" fill="#7C7C7C"/>
</g>
<defs>
<clipPath id="clip0_19_1660">
<rect width="20" height="20" fill="white" transform="translate(0 0.92749)"/>
</clipPath>
</defs>
</svg>
