<svg width="21" height="20" viewBox="0 0 21 20" fill="none" xmlns="http://www.w3.org/2000/svg">
<g clip-path="url(#clip0_133_1987)">
<path fill-rule="evenodd" clip-rule="evenodd" d="M18.198 0H3.198C2.53496 0 1.89907 0.263392 1.43023 0.732233C0.96139 1.20107 0.697998 1.83696 0.697998 2.5L0.697998 17.5C0.697998 18.163 0.96139 18.7989 1.43023 19.2678C1.89907 19.7366 2.53496 20 3.198 20H18.198C18.861 20 19.4969 19.7366 19.9658 19.2678C20.4346 18.7989 20.698 18.163 20.698 17.5V2.5C20.698 1.83696 20.4346 1.20107 19.9658 0.732233C19.4969 0.263392 18.861 0 18.198 0V0ZM1.948 4.82125C1.948 4.23 2.508 3.75 3.198 3.75H18.198C18.888 3.75 19.448 4.23 19.448 4.82125V17.6787C19.448 18.27 18.888 18.75 18.198 18.75H3.198C2.508 18.75 1.948 18.27 1.948 17.6787V4.82125Z" fill="#259EC5"/>
<path fill-rule="evenodd" clip-rule="evenodd" d="M8.823 8.75C9.15452 8.75 9.47246 8.6183 9.70688 8.38388C9.9413 8.14946 10.073 7.83152 10.073 7.5C10.073 7.16848 9.9413 6.85054 9.70688 6.61612C9.47246 6.3817 9.15452 6.25 8.823 6.25C8.49148 6.25 8.17354 6.3817 7.93911 6.61612C7.70469 6.85054 7.573 7.16848 7.573 7.5C7.573 7.83152 7.70469 8.14946 7.93911 8.38388C8.17354 8.6183 8.49148 8.75 8.823 8.75ZM12.573 8.75C12.9045 8.75 13.2225 8.6183 13.4569 8.38388C13.6913 8.14946 13.823 7.83152 13.823 7.5C13.823 7.16848 13.6913 6.85054 13.4569 6.61612C13.2225 6.3817 12.9045 6.25 12.573 6.25C12.2415 6.25 11.9235 6.3817 11.6891 6.61612C11.4547 6.85054 11.323 7.16848 11.323 7.5C11.323 7.83152 11.4547 8.14946 11.6891 8.38388C11.9235 8.6183 12.2415 8.75 12.573 8.75ZM16.323 8.75C16.6545 8.75 16.9725 8.6183 17.2069 8.38388C17.4413 8.14946 17.573 7.83152 17.573 7.5C17.573 7.16848 17.4413 6.85054 17.2069 6.61612C16.9725 6.3817 16.6545 6.25 16.323 6.25C15.9915 6.25 15.6735 6.3817 15.4391 6.61612C15.2047 6.85054 15.073 7.16848 15.073 7.5C15.073 7.83152 15.2047 8.14946 15.4391 8.38388C15.6735 8.6183 15.9915 8.75 16.323 8.75ZM5.073 12.5C5.40452 12.5 5.72246 12.3683 5.95688 12.1339C6.1913 11.8995 6.323 11.5815 6.323 11.25C6.323 10.9185 6.1913 10.6005 5.95688 10.3661C5.72246 10.1317 5.40452 10 5.073 10C4.74148 10 4.42353 10.1317 4.18911 10.3661C3.95469 10.6005 3.823 10.9185 3.823 11.25C3.823 11.5815 3.95469 11.8995 4.18911 12.1339C4.42353 12.3683 4.74148 12.5 5.073 12.5ZM8.823 12.5C9.15452 12.5 9.47246 12.3683 9.70688 12.1339C9.9413 11.8995 10.073 11.5815 10.073 11.25C10.073 10.9185 9.9413 10.6005 9.70688 10.3661C9.47246 10.1317 9.15452 10 8.823 10C8.49148 10 8.17354 10.1317 7.93911 10.3661C7.70469 10.6005 7.573 10.9185 7.573 11.25C7.573 11.5815 7.70469 11.8995 7.93911 12.1339C8.17354 12.3683 8.49148 12.5 8.823 12.5ZM12.573 12.5C12.9045 12.5 13.2225 12.3683 13.4569 12.1339C13.6913 11.8995 13.823 11.5815 13.823 11.25C13.823 10.9185 13.6913 10.6005 13.4569 10.3661C13.2225 10.1317 12.9045 10 12.573 10C12.2415 10 11.9235 10.1317 11.6891 10.3661C11.4547 10.6005 11.323 10.9185 11.323 11.25C11.323 11.5815 11.4547 11.8995 11.6891 12.1339C11.9235 12.3683 12.2415 12.5 12.573 12.5ZM16.323 12.5C16.6545 12.5 16.9725 12.3683 17.2069 12.1339C17.4413 11.8995 17.573 11.5815 17.573 11.25C17.573 10.9185 17.4413 10.6005 17.2069 10.3661C16.9725 10.1317 16.6545 10 16.323 10C15.9915 10 15.6735 10.1317 15.4391 10.3661C15.2047 10.6005 15.073 10.9185 15.073 11.25C15.073 11.5815 15.2047 11.8995 15.4391 12.1339C15.6735 12.3683 15.9915 12.5 16.323 12.5ZM5.073 16.25C5.40452 16.25 5.72246 16.1183 5.95688 15.8839C6.1913 15.6495 6.323 15.3315 6.323 15C6.323 14.6685 6.1913 14.3505 5.95688 14.1161C5.72246 13.8817 5.40452 13.75 5.073 13.75C4.74148 13.75 4.42353 13.8817 4.18911 14.1161C3.95469 14.3505 3.823 14.6685 3.823 15C3.823 15.3315 3.95469 15.6495 4.18911 15.8839C4.42353 16.1183 4.74148 16.25 5.073 16.25ZM8.823 16.25C9.15452 16.25 9.47246 16.1183 9.70688 15.8839C9.9413 15.6495 10.073 15.3315 10.073 15C10.073 14.6685 9.9413 14.3505 9.70688 14.1161C9.47246 13.8817 9.15452 13.75 8.823 13.75C8.49148 13.75 8.17354 13.8817 7.93911 14.1161C7.70469 14.3505 7.573 14.6685 7.573 15C7.573 15.3315 7.70469 15.6495 7.93911 15.8839C8.17354 16.1183 8.49148 16.25 8.823 16.25ZM12.573 16.25C12.9045 16.25 13.2225 16.1183 13.4569 15.8839C13.6913 15.6495 13.823 15.3315 13.823 15C13.823 14.6685 13.6913 14.3505 13.4569 14.1161C13.2225 13.8817 12.9045 13.75 12.573 13.75C12.2415 13.75 11.9235 13.8817 11.6891 14.1161C11.4547 14.3505 11.323 14.6685 11.323 15C11.323 15.3315 11.4547 15.6495 11.6891 15.8839C11.9235 16.1183 12.2415 16.25 12.573 16.25Z" fill="#259EC5"/>
</g>
<defs>
<clipPath id="clip0_133_1987">
<rect width="20" height="20" fill="white" transform="translate(0.697998)"/>
</clipPath>
</defs>
</svg>
