<svg width="20" height="21" viewBox="0 0 20 21" fill="none" xmlns="http://www.w3.org/2000/svg">
<g clip-path="url(#clip0_99_4649)">
<path fill-rule="evenodd" clip-rule="evenodd" d="M0 3.625C0 3.45924 0.065848 3.30027 0.183058 3.18306C0.300269 3.06585 0.45924 3 0.625 3H2.5C2.63941 3.00004 2.77481 3.04669 2.88466 3.13253C2.99452 3.21837 3.07251 3.33848 3.10625 3.47375L3.6125 5.5H18.125C18.2199 5.50003 18.3136 5.52168 18.3989 5.56332C18.4843 5.60495 18.559 5.66548 18.6174 5.7403C18.6758 5.81512 18.7165 5.90227 18.7362 5.99513C18.7559 6.088 18.7542 6.18414 18.7312 6.27625L16.8562 13.7763C16.8225 13.9115 16.7445 14.0316 16.6347 14.1175C16.5248 14.2033 16.3894 14.25 16.25 14.25H5C4.86059 14.25 4.72519 14.2033 4.61534 14.1175C4.50548 14.0316 4.42749 13.9115 4.39375 13.7763L2.0125 4.25H0.625C0.45924 4.25 0.300269 4.18415 0.183058 4.06694C0.065848 3.94973 0 3.79076 0 3.625ZM3.925 6.75L4.55 9.25H6.25V6.75H3.925ZM7.5 6.75V9.25H10V6.75H7.5ZM11.25 6.75V9.25H13.75V6.75H11.25ZM15 6.75V9.25H16.7L17.325 6.75H15ZM16.3875 10.5H15V13H15.7625L16.3875 10.5ZM13.75 10.5H11.25V13H13.75V10.5ZM10 10.5H7.5V13H10V10.5ZM6.25 10.5H4.8625L5.4875 13H6.25V10.5ZM6.25 16.75C5.91848 16.75 5.60054 16.8817 5.36612 17.1161C5.1317 17.3505 5 17.6685 5 18C5 18.3315 5.1317 18.6495 5.36612 18.8839C5.60054 19.1183 5.91848 19.25 6.25 19.25C6.58152 19.25 6.89946 19.1183 7.13388 18.8839C7.3683 18.6495 7.5 18.3315 7.5 18C7.5 17.6685 7.3683 17.3505 7.13388 17.1161C6.89946 16.8817 6.58152 16.75 6.25 16.75ZM3.75 18C3.75 17.337 4.01339 16.7011 4.48223 16.2322C4.95107 15.7634 5.58696 15.5 6.25 15.5C6.91304 15.5 7.54893 15.7634 8.01777 16.2322C8.48661 16.7011 8.75 17.337 8.75 18C8.75 18.663 8.48661 19.2989 8.01777 19.7678C7.54893 20.2366 6.91304 20.5 6.25 20.5C5.58696 20.5 4.95107 20.2366 4.48223 19.7678C4.01339 19.2989 3.75 18.663 3.75 18ZM15 16.75C14.6685 16.75 14.3505 16.8817 14.1161 17.1161C13.8817 17.3505 13.75 17.6685 13.75 18C13.75 18.3315 13.8817 18.6495 14.1161 18.8839C14.3505 19.1183 14.6685 19.25 15 19.25C15.3315 19.25 15.6495 19.1183 15.8839 18.8839C16.1183 18.6495 16.25 18.3315 16.25 18C16.25 17.6685 16.1183 17.3505 15.8839 17.1161C15.6495 16.8817 15.3315 16.75 15 16.75ZM12.5 18C12.5 17.337 12.7634 16.7011 13.2322 16.2322C13.7011 15.7634 14.337 15.5 15 15.5C15.663 15.5 16.2989 15.7634 16.7678 16.2322C17.2366 16.7011 17.5 17.337 17.5 18C17.5 18.663 17.2366 19.2989 16.7678 19.7678C16.2989 20.2366 15.663 20.5 15 20.5C14.337 20.5 13.7011 20.2366 13.2322 19.7678C12.7634 19.2989 12.5 18.663 12.5 18Z" fill="#7C7C7C"/>
</g>
<defs>
<clipPath id="clip0_99_4649">
<rect width="20" height="20" fill="white" transform="translate(0 0.5)"/>
</clipPath>
</defs>
</svg>
