<svg width="24" height="24" viewBox="0 0 24 24" fill="none" xmlns="http://www.w3.org/2000/svg">
<g clip-path="url(#clip0_133_1988)">
<path fill-rule="evenodd" clip-rule="evenodd" d="M0.451904 3.75C0.451904 3.55109 0.527761 3.36032 0.662787 3.21967C0.797814 3.07902 0.980948 3 1.1719 3H3.3319C3.49251 3.00005 3.64849 3.05603 3.77504 3.15904C3.90159 3.26205 3.99144 3.40618 4.0303 3.5685L4.6135 6H21.3319C21.4413 6.00003 21.5492 6.02602 21.6475 6.07598C21.7458 6.12594 21.8318 6.19857 21.8992 6.28836C21.9665 6.37814 22.0133 6.48272 22.036 6.59416C22.0587 6.7056 22.0568 6.82096 22.0303 6.9315L19.8703 15.9315C19.8314 16.0938 19.7416 16.238 19.615 16.341C19.4885 16.444 19.3325 16.5 19.1719 16.5H6.2119C6.0513 16.5 5.89532 16.444 5.76877 16.341C5.64222 16.238 5.55237 16.0938 5.5135 15.9315L2.7703 4.5H1.1719C0.980948 4.5 0.797814 4.42098 0.662787 4.28033C0.527761 4.13968 0.451904 3.94891 0.451904 3.75ZM4.9735 7.5L5.6935 10.5H7.6519V7.5H4.9735ZM9.0919 7.5V10.5H11.9719V7.5H9.0919ZM13.4119 7.5V10.5H16.2919V7.5H13.4119ZM17.7319 7.5V10.5H19.6903L20.4103 7.5H17.7319ZM19.3303 12H17.7319V15H18.6103L19.3303 12ZM16.2919 12H13.4119V15H16.2919V12ZM11.9719 12H9.0919V15H11.9719V12ZM7.6519 12H6.0535L6.7735 15H7.6519V12ZM7.6519 19.5C7.26999 19.5 6.90372 19.658 6.63367 19.9393C6.36362 20.2206 6.2119 20.6022 6.2119 21C6.2119 21.3978 6.36362 21.7794 6.63367 22.0607C6.90372 22.342 7.26999 22.5 7.6519 22.5C8.03382 22.5 8.40009 22.342 8.67014 22.0607C8.94019 21.7794 9.0919 21.3978 9.0919 21C9.0919 20.6022 8.94019 20.2206 8.67014 19.9393C8.40009 19.658 8.03382 19.5 7.6519 19.5ZM4.7719 21C4.7719 20.2044 5.07533 19.4413 5.61544 18.8787C6.15554 18.3161 6.88808 18 7.6519 18C8.41573 18 9.14827 18.3161 9.68837 18.8787C10.2285 19.4413 10.5319 20.2044 10.5319 21C10.5319 21.7956 10.2285 22.5587 9.68837 23.1213C9.14827 23.6839 8.41573 24 7.6519 24C6.88808 24 6.15554 23.6839 5.61544 23.1213C5.07533 22.5587 4.7719 21.7956 4.7719 21ZM17.7319 19.5C17.35 19.5 16.9837 19.658 16.7137 19.9393C16.4436 20.2206 16.2919 20.6022 16.2919 21C16.2919 21.3978 16.4436 21.7794 16.7137 22.0607C16.9837 22.342 17.35 22.5 17.7319 22.5C18.1138 22.5 18.4801 22.342 18.7501 22.0607C19.0202 21.7794 19.1719 21.3978 19.1719 21C19.1719 20.6022 19.0202 20.2206 18.7501 19.9393C18.4801 19.658 18.1138 19.5 17.7319 19.5ZM14.8519 21C14.8519 20.2044 15.1553 19.4413 15.6954 18.8787C16.2355 18.3161 16.9681 18 17.7319 18C18.4957 18 19.2283 18.3161 19.7684 18.8787C20.3085 19.4413 20.6119 20.2044 20.6119 21C20.6119 21.7956 20.3085 22.5587 19.7684 23.1213C19.2283 23.6839 18.4957 24 17.7319 24C16.9681 24 16.2355 23.6839 15.6954 23.1213C15.1553 22.5587 14.8519 21.7956 14.8519 21Z" fill="#259EC5"/>
</g>
<defs>
<clipPath id="clip0_133_1988">
<rect width="23.04" height="24" fill="white" transform="translate(0.451904)"/>
</clipPath>
</defs>
</svg>
