<svg width="25" height="24" viewBox="0 0 25 24" fill="none" xmlns="http://www.w3.org/2000/svg">
<path fill-rule="evenodd" clip-rule="evenodd" d="M11.315 1.2C12.035 0.4425 12.5 0 12.5 0C12.6635 0.5445 12.851 1.062 13.0565 1.557C14.2745 4.476 16.166 6.582 17.852 8.457C19.817 10.644 21.5 12.5175 21.5 15C21.5 17.3869 20.5518 19.6761 18.864 21.364C17.1761 23.0518 14.8869 24 12.5 24C10.1131 24 7.82387 23.0518 6.13604 21.364C4.44821 19.6761 3.5 17.3869 3.5 15C3.5 10.002 8.87 3.7755 11.315 1.2ZM11.9345 2.7315C10.9712 3.77391 10.0558 4.85952 9.191 5.985C8.102 7.41 7.037 8.997 6.251 10.59C5.456 12.1995 5 13.707 5 15C5 16.9891 5.79018 18.8968 7.1967 20.3033C8.60322 21.7098 10.5109 22.5 12.5 22.5C14.4891 22.5 16.3968 21.7098 17.8033 20.3033C19.2098 18.8968 20 16.9891 20 15C20 13.1985 18.806 11.7645 16.7285 9.45L16.6835 9.402C15.125 7.665 13.25 5.58 11.9345 2.73V2.7315Z" fill="#7020B3"/>
<path fill-rule="evenodd" clip-rule="evenodd" d="M7.3291 11.664C8.5591 9.20249 9.9046 7.53449 10.4686 6.96899L11.5306 8.03099C11.0956 8.46599 9.8386 9.99749 8.6701 12.336L7.3291 11.664Z" fill="#7020B3"/>
</svg>
