<svg width="21" height="24" viewBox="0 0 21 24" fill="none" xmlns="http://www.w3.org/2000/svg">
<path d="M17.2975 7.57584C17.1858 7.46656 17.0328 7.39937 16.8645 7.39937C16.8248 7.39937 16.7859 7.40342 16.7479 7.4099L16.7519 7.40909C16.5512 7.44956 16.3885 7.58474 16.3108 7.76444L16.3092 7.76849C15.9336 8.62491 15.3629 9.33563 14.6514 9.86745L14.6376 9.87716C14.6967 9.48052 14.7307 9.02317 14.7307 8.55853C14.7307 7.14196 14.4158 5.79905 13.8524 4.59537L13.8767 4.65284C12.8891 2.59112 11.2346 0.980269 9.19796 0.0728523L9.13805 0.0493777C9.06682 0.0178083 8.98425 0 8.89764 0C8.56171 0 8.28973 0.271982 8.28973 0.607913C8.28973 0.644339 8.29297 0.679955 8.29944 0.714763L8.29863 0.710715C8.30106 0.772235 8.30268 0.845088 8.30268 0.91794C8.30268 2.64697 7.53611 4.19711 6.32433 5.24699L6.31705 5.25347C5.89046 5.68572 5.43472 6.09451 4.98061 6.50329C3.94611 7.35971 3.04598 8.32298 2.28022 9.38905L2.24946 9.43438C1.40275 10.8121 0.900879 12.482 0.900879 14.2677C0.900879 15.1517 1.02392 16.0073 1.25381 16.8184L1.23762 16.7528C1.83339 19.1901 3.33091 21.2049 5.3473 22.4661L5.38616 22.4887C6.85697 23.4277 8.64832 23.9903 10.5708 24H10.5732C10.5765 24 10.5813 24 10.5854 24C10.9942 24 11.3973 23.9733 11.7915 23.9207L11.7454 23.9255C15.4123 23.3897 18.3855 20.8916 19.594 17.5477L19.6158 17.4797C19.9226 16.5715 20.0991 15.5257 20.0991 14.4385C20.0991 11.7657 19.0298 9.3421 17.2951 7.57341L17.2975 7.57584ZM18.4656 17.0904C17.3914 20.0708 14.7938 22.2548 11.6369 22.7162L11.5908 22.7218C11.2864 22.7607 10.9343 22.7826 10.5773 22.7826C8.88955 22.7826 7.31755 22.2888 5.99731 21.438L6.0305 21.4583C4.23914 20.3404 2.93508 18.5846 2.42754 16.5164L2.41621 16.4614C2.22517 15.8049 2.11509 15.0505 2.11509 14.2702C2.11509 12.7297 2.5441 11.2889 3.28882 10.0617L3.26858 10.0981C4.00601 9.07822 4.83734 8.19346 5.76904 7.4269L5.79332 7.40747C6.26605 6.9833 6.73878 6.55752 7.18318 6.10746C8.43462 4.96448 9.29185 3.4103 9.54198 1.65942L9.54684 1.61975C10.9521 2.46079 12.0611 3.67095 12.7564 5.11667L12.7774 5.16604C13.2445 6.16088 13.5173 7.32652 13.5173 8.55611C13.5173 9.38986 13.3918 10.1945 13.1587 10.9521L13.1741 10.8947C13.1571 10.9473 13.1482 11.008 13.1482 11.0711C13.1482 11.4063 13.4202 11.6782 13.7553 11.6782C13.837 11.6782 13.9156 11.662 13.986 11.6329L13.9819 11.6345C15.2568 11.1059 16.2938 10.2155 16.9907 9.09278L17.0061 9.06526C18.1782 10.5215 18.8873 12.3938 18.8873 14.4312C18.8873 15.3824 18.7327 16.2971 18.4478 17.1527L18.4656 17.092V17.0904Z" fill="#7020B3"/>
</svg>
