<svg width="18" height="24" viewBox="0 0 18 24" fill="none" xmlns="http://www.w3.org/2000/svg">
<path d="M3 0H11.25V1.5H3C2.60218 1.5 2.22064 1.65804 1.93934 1.93934C1.65804 2.22064 1.5 2.60218 1.5 3V21C1.5 21.3978 1.65804 21.7794 1.93934 22.0607C2.22064 22.342 2.60218 22.5 3 22.5H15C15.3978 22.5 15.7794 22.342 16.0607 22.0607C16.342 21.7794 16.5 21.3978 16.5 21V6.75H18V21C18 21.7957 17.6839 22.5587 17.1213 23.1213C16.5587 23.6839 15.7957 24 15 24H3C2.20435 24 1.44129 23.6839 0.87868 23.1213C0.31607 22.5587 0 21.7957 0 21V3C0 2.20435 0.31607 1.44129 0.87868 0.87868C1.44129 0.316071 2.20435 0 3 0Z" fill="#7020B3"/>
<path d="M11.25 4.5V0L18 6.75H13.5C12.9033 6.75 12.331 6.51295 11.909 6.09099C11.4871 5.66903 11.25 5.09674 11.25 4.5Z" fill="#7020B3"/>
<path d="M5.92909 11.8032H6.95062C7.30666 11.8032 7.63587 11.864 7.93823 11.9855C8.24341 12.1042 8.50904 12.2737 8.7351 12.4941C8.96399 12.7145 9.14201 12.9773 9.26917 13.2825C9.39633 13.5849 9.45991 13.9197 9.45991 14.2871C9.45991 14.6544 9.39633 14.9907 9.26917 15.2959C9.14201 15.6011 8.96399 15.8653 8.7351 16.0885C8.50904 16.3089 8.24341 16.4799 7.93823 16.6014C7.63587 16.7201 7.30666 16.7794 6.95062 16.7794H5.92909C5.57304 16.7794 5.24384 16.7201 4.94148 16.6014C4.63912 16.4799 4.3735 16.3089 4.14461 16.0885C3.91855 15.8681 3.74194 15.6067 3.61478 15.3044C3.49044 14.9992 3.42827 14.6629 3.42827 14.2956C3.42827 13.9282 3.49044 13.5934 3.61478 13.291C3.74194 12.9858 3.91855 12.723 4.14461 12.5026C4.3735 12.2794 4.63912 12.107 4.94148 11.9855C5.24384 11.864 5.57304 11.8032 5.92909 11.8032ZM5.92909 12.4475C5.55892 12.4475 5.24525 12.5252 4.98811 12.6806C4.73096 12.8332 4.53598 13.048 4.40317 13.3249C4.27036 13.6018 4.20395 13.9254 4.20395 14.2956C4.20395 14.5753 4.24069 14.8282 4.31416 15.0543C4.39045 15.2804 4.50207 15.4739 4.64901 15.635C4.79595 15.7961 4.9768 15.9204 5.19156 16.008C5.40632 16.0956 5.65217 16.1394 5.92909 16.1394H6.95909C7.32644 16.1394 7.63728 16.0631 7.8916 15.9105C8.14875 15.7551 8.34373 15.5389 8.47654 15.262C8.61218 14.9822 8.68 14.6573 8.68 14.2871C8.68 14.0102 8.64185 13.7587 8.56555 13.5326C8.48925 13.3065 8.37764 13.113 8.2307 12.9519C8.08658 12.7908 7.90714 12.6665 7.69238 12.5789C7.48045 12.4913 7.23602 12.4475 6.95909 12.4475H5.92909ZM6.83617 10.9343V17.6145H6.05202V10.9343H6.83617Z" fill="#7020B3"/>
<path d="M12.3846 14.3973H11.6513V13.8759H12.3549C12.6658 13.8759 12.9173 13.8321 13.1094 13.7445C13.3016 13.6569 13.4414 13.5354 13.529 13.38C13.6166 13.2246 13.6604 13.0452 13.6604 12.8417C13.6604 12.6467 13.6124 12.4687 13.5163 12.3076C13.4202 12.1437 13.2719 12.0137 13.0713 11.9177C12.8706 11.8188 12.6121 11.7693 12.2956 11.7693C12.0582 11.7693 11.8435 11.8145 11.6513 11.905C11.4592 11.9926 11.3066 12.1155 11.1935 12.2737C11.0805 12.4291 11.024 12.6086 11.024 12.812H10.2059C10.2059 12.5492 10.261 12.3133 10.3712 12.1042C10.4814 11.8922 10.6326 11.7128 10.8248 11.5659C11.0169 11.4161 11.2387 11.3016 11.4902 11.2225C11.7446 11.1434 12.013 11.1038 12.2956 11.1038C12.6262 11.1038 12.9257 11.142 13.1942 11.2183C13.4626 11.2918 13.6929 11.402 13.8851 11.5489C14.0772 11.6958 14.2242 11.8781 14.3259 12.0957C14.4276 12.3133 14.4785 12.5662 14.4785 12.8544C14.4785 13.0664 14.4291 13.2656 14.3302 13.4521C14.2312 13.6386 14.09 13.8025 13.9063 13.9438C13.7226 14.085 13.5022 14.1967 13.2451 14.2786C12.9879 14.3577 12.7011 14.3973 12.3846 14.3973ZM11.6513 14.037H12.3846C12.7322 14.037 13.0416 14.0723 13.3129 14.143C13.5841 14.2136 13.813 14.3168 13.9995 14.4524C14.186 14.588 14.3273 14.7562 14.4234 14.9568C14.5223 15.1546 14.5718 15.3821 14.5718 15.6392C14.5718 15.9275 14.5152 16.1832 14.4022 16.4064C14.292 16.6297 14.1352 16.819 13.9317 16.9744C13.7283 17.1298 13.4867 17.2471 13.2069 17.3262C12.93 17.4053 12.6262 17.4449 12.2956 17.4449C12.03 17.4449 11.7672 17.411 11.5072 17.3432C11.25 17.2725 11.0169 17.1652 10.8078 17.021C10.5987 16.8741 10.4306 16.6876 10.3034 16.4615C10.1791 16.2355 10.1169 15.9642 10.1169 15.6477H10.935C10.935 15.854 10.9915 16.0433 11.1045 16.2157C11.2204 16.3881 11.38 16.5265 11.5835 16.6311C11.7869 16.7328 12.0243 16.7837 12.2956 16.7837C12.6064 16.7837 12.8692 16.7356 13.084 16.6396C13.3016 16.5407 13.4669 16.4064 13.5799 16.2369C13.6958 16.0645 13.7537 15.8709 13.7537 15.6562C13.7537 15.4669 13.7226 15.303 13.6604 15.1645C13.6011 15.0232 13.5121 14.9073 13.3934 14.8169C13.2775 14.7265 13.132 14.6601 12.9568 14.6177C12.7844 14.5725 12.5838 14.5499 12.3549 14.5499H11.6513V14.037Z" fill="#7020B3"/>
</svg>
