<svg width="25" height="24" viewBox="0 0 25 24" fill="none" xmlns="http://www.w3.org/2000/svg">
<g clip-path="url(#clip0_301_1181)">
<path fill-rule="evenodd" clip-rule="evenodd" d="M17.3768 0.10193C17.5236 0.187038 17.6372 0.319415 17.6991 0.477437C17.7609 0.635458 17.7673 0.809782 17.7173 0.97193L15.0158 9.74993H20.0003C20.1468 9.74987 20.2901 9.79271 20.4125 9.87316C20.5349 9.9536 20.6311 10.0681 20.6892 10.2026C20.7472 10.3371 20.7646 10.4856 20.7393 10.6299C20.7139 10.7742 20.6468 10.9078 20.5463 11.0144L8.5463 23.7644C8.43019 23.8879 8.27568 23.9684 8.10796 23.9928C7.94024 24.0172 7.76919 23.9841 7.6227 23.8989C7.47622 23.8136 7.36292 23.6813 7.30129 23.5234C7.23965 23.3655 7.23331 23.1914 7.2833 23.0294L9.9848 14.2499H5.0003C4.85382 14.25 4.71052 14.2071 4.58811 14.1267C4.46569 14.0463 4.36951 13.9317 4.31145 13.7972C4.25338 13.6628 4.23596 13.5142 4.26135 13.37C4.28674 13.2257 4.35381 13.092 4.4543 12.9854L16.4543 0.23543C16.5703 0.112129 16.7245 0.0316831 16.892 0.00717301C17.0595 -0.0173371 17.2304 0.01553 17.3768 0.10043V0.10193ZM6.7358 12.7499H11.0003C11.1177 12.7499 11.2334 12.7774 11.3382 12.8303C11.443 12.8831 11.5339 12.9599 11.6037 13.0543C11.6734 13.1487 11.72 13.2581 11.7398 13.3738C11.7595 13.4895 11.7518 13.6082 11.7173 13.7204L9.6653 20.3849L18.2633 11.2499H14.0003C13.8829 11.25 13.7672 11.2224 13.6624 11.1696C13.5576 11.1167 13.4667 11.04 13.3969 10.9456C13.3272 10.8512 13.2806 10.7417 13.2608 10.626C13.2411 10.5103 13.2488 10.3916 13.2833 10.2794L15.3353 3.61493L6.7358 12.7499Z" fill="#7020B3"/>
</g>
<defs>
<clipPath id="clip0_301_1181">
<rect width="24" height="24" fill="white" transform="translate(0.5)"/>
</clipPath>
</defs>
</svg>
