<svg width="137" height="51" viewBox="0 0 137 51" fill="none" xmlns="http://www.w3.org/2000/svg">
<path d="M54.7342 9.12182V14.4875C55.8958 14.4875 56.6356 14.407 56.9536 14.2461C57.2593 14.0728 57.4977 13.7819 57.6689 13.3735C57.8401 12.9527 58.0296 12.3028 58.2375 11.424C58.7878 9.40651 60.249 8.64529 62.6212 9.14039V11.0341C62.0954 10.9846 61.6858 11.0527 61.3923 11.2384C61.1111 11.424 60.9032 11.7582 60.7687 12.2409C60.3407 13.8872 59.8027 15.0383 59.1546 15.6943L63.0798 21.7097V22.1182H59.98L56.7518 16.7711C56.4216 16.8577 55.7491 16.9011 54.7342 16.9011V22.1182H52.0012V9.12182H54.7342Z" fill="#351E1C"/>
<path d="M67.1724 11.5354H63.7424V9.12182H73.2436V11.5354H69.832V22.1182H67.1724V11.5354Z" fill="#351E1C"/>
<path d="M87.1846 15.62C87.1846 17.6004 86.5732 19.2157 85.3504 20.4658C84.1276 21.7159 82.5441 22.341 80.5999 22.341C78.7779 22.341 77.231 21.7469 75.9593 20.5586C74.6998 19.358 74.0701 17.7118 74.0701 15.62C74.0701 14.2213 74.3819 13.0022 75.0055 11.9625C75.6414 10.9227 76.4485 10.1553 77.4267 9.66024C78.4172 9.16514 79.4932 8.91759 80.6549 8.91759C81.5108 8.91759 82.324 9.06612 83.0944 9.36318C83.8647 9.66024 84.5556 10.0811 85.167 10.6257C85.7906 11.1703 86.2798 11.8758 86.6344 12.7422C87.0012 13.6087 87.1846 14.5679 87.1846 15.62ZM76.8397 15.62C76.8397 16.9691 77.2005 18.0027 77.9219 18.7206C78.6434 19.4385 79.5483 19.7974 80.6365 19.7974C81.7126 19.7974 82.6175 19.4385 83.3512 18.7206C84.0848 18.0027 84.4517 16.9691 84.4517 15.62C84.4517 14.308 84.0848 13.293 83.3512 12.5751C82.6175 11.8449 81.7187 11.4797 80.6549 11.4797C79.5788 11.4797 78.674 11.8449 77.9403 12.5751C77.2066 13.293 76.8397 14.308 76.8397 15.62Z" fill="#351E1C"/>
<path d="M52.0012 27.688H62.4011V40.6844H59.6498V30.2131H54.7525V40.6844H52.0012V27.688Z" fill="#351E1C"/>
<path d="M77.7629 34.1862C77.7629 36.1666 77.1515 37.7819 75.9287 39.032C74.7059 40.2821 73.1223 40.9072 71.1781 40.9072C69.3561 40.9072 67.8093 40.3131 66.5376 39.1248C65.2781 37.9242 64.6483 36.278 64.6483 34.1862C64.6483 32.7876 64.9601 31.5684 65.5838 30.5287C66.2196 29.489 67.0267 28.7216 68.0049 28.2265C68.9954 27.7314 70.0714 27.4838 71.2331 27.4838C72.0891 27.4838 72.9022 27.6323 73.6726 27.9294C74.443 28.2265 75.1338 28.6473 75.7452 29.1919C76.3689 29.7365 76.858 30.442 77.2126 31.3085C77.5794 32.1749 77.7629 33.1341 77.7629 34.1862ZM67.418 34.1862C67.418 35.5354 67.7787 36.5689 68.5001 37.2868C69.2216 38.0047 70.1265 38.3636 71.2148 38.3636C72.2908 38.3636 73.1957 38.0047 73.9294 37.2868C74.6631 36.5689 75.0299 35.5354 75.0299 34.1862C75.0299 32.8742 74.6631 31.8593 73.9294 31.1414C73.1957 30.4111 72.2969 30.046 71.2331 30.046C70.157 30.046 69.2522 30.4111 68.5185 31.1414C67.7848 31.8593 67.418 32.8742 67.418 34.1862Z" fill="#351E1C"/>
<path d="M89.5169 31.5498C89.5169 32.0325 89.4008 32.4905 89.1684 32.9237C88.9483 33.3569 88.6365 33.6973 88.233 33.9449C89.4558 34.4647 90.0672 35.4302 90.0672 36.8412C90.0672 38.0047 89.7065 38.9392 88.985 39.6447C88.2636 40.3378 87.267 40.6844 85.9953 40.6844H80.0341V27.7066H85.4817C86.68 27.7066 87.6522 28.0532 88.3981 28.7463C89.144 29.4271 89.5169 30.3616 89.5169 31.5498ZM85.2799 30.0831H82.7671V33.0351H85.2799C85.7446 33.0351 86.1114 32.9113 86.3805 32.6638C86.6617 32.4162 86.8084 32.0759 86.8207 31.6427C86.8329 31.1723 86.6984 30.7948 86.4171 30.5101C86.1359 30.2254 85.7568 30.0831 85.2799 30.0831ZM85.6835 35.3002H82.7671V38.2708H85.8119C86.2765 38.2708 86.6434 38.147 86.9124 37.8995C87.1814 37.6395 87.3281 37.2868 87.3526 36.8412C87.377 36.2718 87.1875 35.8448 86.784 35.5601C86.5394 35.3868 86.1726 35.3002 85.6835 35.3002Z" fill="#351E1C"/>
<path d="M100.208 27.688V30.1202H95.109V32.7566H99.8779V35.1888H95.109V38.1594H100.355V40.6844H92.3393V27.688H100.208Z" fill="#351E1C"/>
<path d="M105.605 40.6658H102.854V27.6695H108.338C109.757 27.6695 110.87 28.1336 111.677 29.0619C112.496 29.9903 112.906 31.1042 112.906 32.4039C112.906 33.6787 112.496 34.7618 111.677 35.653C110.857 36.5441 109.745 36.9897 108.338 36.9897H105.605V40.6658ZM105.55 34.6132H108.338C108.913 34.6132 109.378 34.3966 109.732 33.9634C110.099 33.5178 110.283 32.9732 110.283 32.3296C110.283 31.6983 110.105 31.1723 109.751 30.7515C109.396 30.3183 108.925 30.1017 108.338 30.1017H105.55V34.6132Z" fill="#351E1C"/>
<path d="M122.944 33.2579L115.68 40.7215H114.855V27.688H117.606V35.0588L124.815 27.6323H125.677V40.6844H122.944V33.2579Z" fill="#351E1C"/>
<path d="M130.922 30.1017H127.492V27.688H136.993V30.1017H133.581V40.6844H130.922V30.1017Z" fill="#351E1C"/>
<path d="M6.96197 14.373C-4.84257 36.9213 26.4302 35.7947 30.8686 31.8363C33.29 37.7047 29.1239 46.0292 14.2411 44.7469C-0.635754 41.5507 -2.18611 29.3106 6.96197 14.373Z" fill="url(#paint0_linear_19_1553)"/>
<path d="M14.3599 44.7648C45.6553 45.5327 24.2431 17.5048 20.1829 14.866C24.5313 10.2943 35.6189 8.06709 40.1905 24.967C44.3878 42.7751 27.3813 46.9584 14.3599 44.7648Z" fill="url(#paint1_linear_19_1553)"/>
<path d="M35.4802 15.2909C23.2809 3.14824 11.4108 24.1496 11.5631 32.6071C5.93063 30.5911 -0.181049 24.8724 8.66358 11.691C18.2166 0.0024026 30.1193 6.94471 35.4802 15.2909Z" fill="url(#paint2_linear_19_1553)"/>
<defs>
<linearGradient id="paint0_linear_19_1553" x1="1.78717" y1="27.8565" x2="32.0084" y2="37.4207" gradientUnits="userSpaceOnUse">
<stop stop-color="#F4BD3C"/>
<stop offset="1" stop-color="#F8633B"/>
</linearGradient>
<linearGradient id="paint1_linear_19_1553" x1="31.6118" y1="43.5543" x2="26.056" y2="12.8324" gradientUnits="userSpaceOnUse">
<stop stop-color="#F4BD3C"/>
<stop offset="1" stop-color="#F8633B"/>
<stop offset="1" stop-color="#F8633B"/>
</linearGradient>
<linearGradient id="paint2_linear_19_1553" x1="26.9485" y1="6.167" x2="6.38389" y2="30.853" gradientUnits="userSpaceOnUse">
<stop stop-color="#F4BD3C"/>
<stop offset="0.0001" stop-color="#F2A635"/>
<stop offset="1" stop-color="#F8633B"/>
</linearGradient>
</defs>
</svg>
