<svg width="51" height="51" viewBox="0 0 51 51" fill="none" xmlns="http://www.w3.org/2000/svg">
<path d="M11.2402 14.8005C-0.564377 37.3488 30.7084 36.2222 35.1468 32.2637C37.5682 38.1322 33.4021 46.4567 18.5193 45.1744C3.64244 41.9781 2.09209 29.7381 11.2402 14.8005Z" fill="url(#paint0_linear_209_260)"/>
<path d="M18.6381 45.1923C49.9335 45.9602 28.5213 17.9323 24.4611 15.2935C28.8095 10.7218 39.8971 8.49458 44.4687 25.3945C48.666 43.2026 31.6595 47.3859 18.6381 45.1923Z" fill="url(#paint1_linear_209_260)"/>
<path d="M39.7584 15.7184C27.5591 3.57573 15.689 24.5771 15.8413 33.0345C10.2088 31.0186 4.09715 25.2998 12.9418 12.1185C22.4948 0.429893 34.3975 7.3722 39.7584 15.7184Z" fill="url(#paint2_linear_209_260)"/>
<defs>
<linearGradient id="paint0_linear_209_260" x1="6.06537" y1="28.284" x2="36.2866" y2="37.8482" gradientUnits="userSpaceOnUse">
<stop stop-color="#F4BD3C"/>
<stop offset="1" stop-color="#F8633B"/>
</linearGradient>
<linearGradient id="paint1_linear_209_260" x1="35.89" y1="43.9818" x2="30.3342" y2="13.2599" gradientUnits="userSpaceOnUse">
<stop stop-color="#F4BD3C"/>
<stop offset="1" stop-color="#F8633B"/>
<stop offset="1" stop-color="#F8633B"/>
</linearGradient>
<linearGradient id="paint2_linear_209_260" x1="31.2267" y1="6.59449" x2="10.6621" y2="31.2805" gradientUnits="userSpaceOnUse">
<stop stop-color="#F4BD3C"/>
<stop offset="0.0001" stop-color="#F2A635"/>
<stop offset="1" stop-color="#F8633B"/>
</linearGradient>
</defs>
</svg>
