<svg width="180" height="125" viewBox="0 0 180 125" fill="none" xmlns="http://www.w3.org/2000/svg">
<path d="M3.8604 105.656V113.2C5.50129 113.2 6.54628 113.086 6.99536 112.86C7.42717 112.617 7.76399 112.208 8.0058 111.633C8.24762 111.042 8.51534 110.128 8.80897 108.893C9.58624 106.056 11.6503 104.986 15.0012 105.682V108.344C14.2584 108.275 13.6798 108.371 13.2653 108.632C12.868 108.893 12.5744 109.362 12.3844 110.041C11.7798 112.356 11.0199 113.974 10.1044 114.896L15.6489 123.353V123.928H11.2703L6.71036 116.41C6.24401 116.532 5.29402 116.593 3.8604 116.593V123.928H0V105.656H3.8604Z" fill="white"/>
<path d="M21.4298 109.049H16.5848V105.656H30.0056V109.049H25.1865V123.928H21.4298V109.049Z" fill="white"/>
<path d="M49.6978 114.792C49.6978 117.576 48.8342 119.847 47.107 121.605C45.3797 123.362 43.1429 124.241 40.3966 124.241C37.823 124.241 35.638 123.406 33.8417 121.735C32.0626 120.047 31.1731 117.733 31.1731 114.792C31.1731 112.825 31.6135 111.111 32.4944 109.65C33.3926 108.188 34.5326 107.109 35.9144 106.413C37.3134 105.717 38.8334 105.369 40.4743 105.369C41.6834 105.369 42.832 105.578 43.9202 105.995C45.0083 106.413 45.9842 107.005 46.8479 107.77C47.7288 108.536 48.4197 109.528 48.9206 110.746C49.4387 111.964 49.6978 113.313 49.6978 114.792ZM35.0853 114.792C35.0853 116.689 35.5948 118.142 36.6139 119.151C37.633 120.16 38.9112 120.665 40.4484 120.665C41.9684 120.665 43.2466 120.16 44.2829 119.151C45.3193 118.142 45.8374 116.689 45.8374 114.792C45.8374 112.947 45.3193 111.52 44.2829 110.511C43.2466 109.484 41.977 108.971 40.4743 108.971C38.9543 108.971 37.6762 109.484 36.6398 110.511C35.6035 111.52 35.0853 112.947 35.0853 114.792Z" fill="white"/>
<path d="M59.2308 105.656H73.9211V123.928H70.0348V109.206H63.1171V123.928H59.2308V105.656Z" fill="white"/>
<path d="M95.6201 114.792C95.6201 117.576 94.7564 119.847 93.0292 121.605C91.3019 123.362 89.0652 124.241 86.3188 124.241C83.7452 124.241 81.5603 123.406 79.7639 121.735C77.9848 120.047 77.0953 117.733 77.0953 114.792C77.0953 112.825 77.5358 111.111 78.4167 109.65C79.3148 108.188 80.4548 107.109 81.8366 106.413C83.2357 105.717 84.7557 105.369 86.3966 105.369C87.6056 105.369 88.7542 105.578 89.8424 105.995C90.9306 106.413 91.9065 107.005 92.7701 107.77C93.651 108.536 94.3419 109.528 94.8428 110.746C95.361 111.964 95.6201 113.313 95.6201 114.792ZM81.0075 114.792C81.0075 116.689 81.5171 118.142 82.5361 119.151C83.5552 120.16 84.8334 120.665 86.3706 120.665C87.8906 120.665 89.1688 120.16 90.2051 119.151C91.2415 118.142 91.7597 116.689 91.7597 114.792C91.7597 112.947 91.2415 111.52 90.2051 110.511C89.1688 109.484 87.8993 108.971 86.3966 108.971C84.8766 108.971 83.5984 109.484 82.5621 110.511C81.5257 111.52 81.0075 112.947 81.0075 114.792Z" fill="white"/>
<path d="M112.223 111.085C112.223 111.764 112.059 112.408 111.731 113.017C111.42 113.626 110.979 114.104 110.41 114.452C112.137 115.183 113 116.541 113 118.524C113 120.16 112.491 121.474 111.472 122.466C110.453 123.44 109.045 123.928 107.249 123.928H98.8283V105.682H106.523C108.216 105.682 109.589 106.169 110.643 107.144C111.696 108.101 112.223 109.415 112.223 111.085ZM106.238 109.023H102.689V113.173H106.238C106.895 113.173 107.413 112.999 107.793 112.651C108.19 112.303 108.397 111.825 108.415 111.216C108.432 110.554 108.242 110.024 107.845 109.623C107.447 109.223 106.912 109.023 106.238 109.023ZM106.808 116.358H102.689V120.534H106.99C107.646 120.534 108.164 120.36 108.544 120.012C108.924 119.647 109.131 119.151 109.166 118.524C109.2 117.724 108.933 117.124 108.363 116.723C108.017 116.48 107.499 116.358 106.808 116.358Z" fill="white"/>
<path d="M127.325 105.656V109.075H120.122V112.782H126.858V116.201H120.122V120.378H127.532V123.928H116.21V105.656H127.325Z" fill="white"/>
<path d="M134.949 123.902H131.062V105.63H138.809C140.813 105.63 142.385 106.282 143.525 107.588C144.682 108.893 145.26 110.459 145.26 112.286C145.26 114.078 144.682 115.601 143.525 116.854C142.367 118.107 140.795 118.733 138.809 118.733H134.949V123.902ZM134.871 115.392H138.809C139.621 115.392 140.277 115.088 140.778 114.479C141.296 113.852 141.555 113.086 141.555 112.182C141.555 111.294 141.305 110.554 140.804 109.963C140.303 109.354 139.638 109.049 138.809 109.049H134.871V115.392Z" fill="white"/>
<path d="M159.44 113.487L149.18 123.98H148.014V105.656H151.9V116.019L162.082 105.578H163.3V123.928H159.44V113.487Z" fill="white"/>
<path d="M170.709 109.049H165.864V105.656H179.284V109.049H174.465V123.928H170.709V109.049Z" fill="white"/>
<path d="M61.669 25.7093C39.4985 67.2786 98.2332 65.2017 106.569 57.904C111.117 68.723 103.292 84.0698 75.3402 81.7058C47.3995 75.8132 44.4877 53.2478 61.669 25.7093Z" fill="url(#paint0_linear_26_1744)"/>
<path d="M75.5631 81.739C134.34 83.1546 94.1252 31.4831 86.4996 26.6184C94.6665 18.1901 115.49 14.084 124.077 45.2402C131.96 78.0707 100.019 85.7831 75.5631 81.739Z" fill="url(#paint1_linear_26_1744)"/>
<path d="M115.23 27.4018C92.318 5.01591 70.0242 43.7334 70.3104 59.3254C59.7318 55.6089 48.2532 45.0659 64.8646 20.7652C82.8066 -0.783678 105.162 12.015 115.23 27.4018Z" fill="url(#paint2_linear_26_1744)"/>
<defs>
<linearGradient id="paint0_linear_26_1744" x1="51.9501" y1="50.5671" x2="108.515" y2="68.804" gradientUnits="userSpaceOnUse">
<stop stop-color="#F4BD3C"/>
<stop offset="1" stop-color="#F8633B"/>
</linearGradient>
<linearGradient id="paint1_linear_26_1744" x1="107.965" y1="79.5073" x2="97.8988" y2="22.8038" gradientUnits="userSpaceOnUse">
<stop stop-color="#F4BD3C"/>
<stop offset="1" stop-color="#F8633B"/>
<stop offset="1" stop-color="#F8633B"/>
</linearGradient>
<linearGradient id="paint2_linear_26_1744" x1="99.2063" y1="10.5812" x2="61.4272" y2="56.7819" gradientUnits="userSpaceOnUse">
<stop stop-color="#F4BD3C"/>
<stop offset="0.0001" stop-color="#F2A635"/>
<stop offset="1" stop-color="#F8633B"/>
</linearGradient>
</defs>
</svg>
