<svg width="16" height="17" viewBox="0 0 16 17" fill="none" xmlns="http://www.w3.org/2000/svg">
<path fill-rule="evenodd" clip-rule="evenodd" d="M0 4.92749C0 4.39706 0.210714 3.88835 0.585786 3.51328C0.960859 3.1382 1.46957 2.92749 2 2.92749H14C14.5304 2.92749 15.0391 3.1382 15.4142 3.51328C15.7893 3.88835 16 4.39706 16 4.92749V12.9275C16 13.4579 15.7893 13.9666 15.4142 14.3417C15.0391 14.7168 14.5304 14.9275 14 14.9275H2C1.46957 14.9275 0.960859 14.7168 0.585786 14.3417C0.210714 13.9666 0 13.4579 0 12.9275V4.92749ZM2 3.92749C1.73478 3.92749 1.48043 4.03285 1.29289 4.22038C1.10536 4.40792 1 4.66227 1 4.92749V5.14449L8 9.34449L15 5.14449V4.92749C15 4.66227 14.8946 4.40792 14.7071 4.22038C14.5196 4.03285 14.2652 3.92749 14 3.92749H2ZM15 6.31049L10.242 9.16549L15 12.0415V6.31149V6.31049ZM14.966 13.1885L9.271 9.74749L8 10.5105L6.728 9.74749L1.034 13.1875C1.0912 13.3999 1.21685 13.5876 1.39149 13.7213C1.56613 13.8551 1.78001 13.9276 2 13.9275H14C14.2199 13.9276 14.4336 13.8553 14.6083 13.7217C14.7829 13.5881 14.9086 13.4007 14.966 13.1885ZM1 12.0415L5.758 9.16549L1 6.31049V12.0405V12.0415Z" fill="#7C7C7C"/>
</svg>
