<svg width="491" height="350" viewBox="0 0 491 350" fill="none" xmlns="http://www.w3.org/2000/svg">
<line x1="415.503" y1="1.35785" x2="415.503" y2="487.47" stroke="white" stroke-opacity="0.4" stroke-width="2.71571" stroke-linecap="round" stroke-dasharray="0.14 67.89"/>
<line x1="211.825" y1="1.35785" x2="211.825" y2="487.47" stroke="white" stroke-opacity="0.4" stroke-width="2.71571" stroke-linecap="round" stroke-dasharray="0.14 67.89"/>
<line x1="347.61" y1="1.35785" x2="347.61" y2="487.47" stroke="white" stroke-opacity="0.4" stroke-width="2.71571" stroke-linecap="round" stroke-dasharray="0.14 67.89"/>
<line x1="143.932" y1="1.35785" x2="143.932" y2="487.47" stroke="white" stroke-opacity="0.4" stroke-width="2.71571" stroke-linecap="round" stroke-dasharray="0.14 67.89"/>
<line x1="279.718" y1="1.35785" x2="279.718" y2="487.47" stroke="white" stroke-opacity="0.4" stroke-width="2.71571" stroke-linecap="round" stroke-dasharray="0.14 67.89"/>
<line x1="76.0398" y1="1.35785" x2="76.0398" y2="487.47" stroke="white" stroke-opacity="0.4" stroke-width="2.71571" stroke-linecap="round" stroke-dasharray="0.14 67.89"/>
<line opacity="0.25" x1="415.503" y1="1.18707e-08" x2="415.503" y2="491" stroke="white" stroke-opacity="0.4" stroke-width="0.543142"/>
<line opacity="0.25" y1="70.88" x2="491" y2="70.88" stroke="white" stroke-opacity="0.4" stroke-width="0.543142"/>
<line opacity="0.25" y1="140.13" x2="491" y2="140.13" stroke="white" stroke-opacity="0.4" stroke-width="0.543142"/>
<line opacity="0.25" y1="209.653" x2="491" y2="209.653" stroke="white" stroke-opacity="0.4" stroke-width="0.543142"/>
<line opacity="0.25" y1="279.175" x2="491" y2="279.175" stroke="white" stroke-opacity="0.4" stroke-width="0.543142"/>
<line opacity="0.25" y1="348.425" x2="491" y2="348.425" stroke="white" stroke-opacity="0.4" stroke-width="0.543142"/>
<line opacity="0.25" x1="347.611" y1="1.18707e-08" x2="347.611" y2="491" stroke="white" stroke-opacity="0.4" stroke-width="0.543142"/>
<line opacity="0.25" x1="279.718" y1="1.18707e-08" x2="279.718" y2="491" stroke="white" stroke-opacity="0.4" stroke-width="0.543142"/>
<line opacity="0.25" x1="211.825" y1="1.18707e-08" x2="211.825" y2="491" stroke="white" stroke-opacity="0.4" stroke-width="0.543142"/>
<line opacity="0.25" x1="143.933" y1="1.18707e-08" x2="143.932" y2="491" stroke="white" stroke-opacity="0.4" stroke-width="0.543142"/>
<line opacity="0.25" x1="76.0396" y1="1.18707e-08" x2="76.0396" y2="491" stroke="white" stroke-opacity="0.4" stroke-width="0.543142"/>
</svg>
