<svg width="21" height="21" viewBox="0 0 21 21" fill="none" xmlns="http://www.w3.org/2000/svg">
<path fill-rule="evenodd" clip-rule="evenodd" d="M13 7.17749C13 7.84053 12.7366 8.47642 12.2678 8.94526C11.7989 9.4141 11.163 9.67749 10.5 9.67749C9.83696 9.67749 9.20107 9.4141 8.73223 8.94526C8.26339 8.47642 8 7.84053 8 7.17749C8 6.51445 8.26339 5.87856 8.73223 5.40972C9.20107 4.94088 9.83696 4.67749 10.5 4.67749C11.163 4.67749 11.7989 4.94088 12.2678 5.40972C12.7366 5.87856 13 6.51445 13 7.17749V7.17749ZM10.5 10.9275C11.4946 10.9275 12.4484 10.5324 13.1517 9.82914C13.8549 9.12588 14.25 8.17205 14.25 7.17749C14.25 6.18293 13.8549 5.2291 13.1517 4.52584C12.4484 3.82258 11.4946 3.42749 10.5 3.42749C9.50544 3.42749 8.55161 3.82258 7.84835 4.52584C7.14509 5.2291 6.75 6.18293 6.75 7.17749C6.75 8.17205 7.14509 9.12588 7.84835 9.82914C8.55161 10.5324 9.50544 10.9275 10.5 10.9275V10.9275ZM18 17.1775C18 18.4275 16.75 18.4275 16.75 18.4275H4.25C4.25 18.4275 3 18.4275 3 17.1775C3 15.9275 4.25 12.1775 10.5 12.1775C16.75 12.1775 18 15.9275 18 17.1775ZM16.75 17.1725C16.7487 16.865 16.5575 15.94 15.71 15.0925C14.895 14.2775 13.3613 13.4275 10.5 13.4275C7.6375 13.4275 6.105 14.2775 5.29 15.0925C4.4425 15.94 4.2525 16.865 4.25 17.1725H16.75Z" fill="#7C7C7C"/>
</svg>
