<svg width="25" height="24" viewBox="0 0 25 24" fill="none" xmlns="http://www.w3.org/2000/svg">
<path fill-rule="evenodd" clip-rule="evenodd" d="M4.74609 21C4.74609 21 3.24609 21 3.24609 19.5C3.24609 18 4.74609 13.5 12.2461 13.5C19.7461 13.5 21.2461 18 21.2461 19.5C21.2461 21 19.7461 21 19.7461 21H4.74609ZM12.2461 12C13.4396 12 14.5842 11.5259 15.4281 10.682C16.272 9.83807 16.7461 8.69347 16.7461 7.5C16.7461 6.30653 16.272 5.16193 15.4281 4.31802C14.5842 3.47411 13.4396 3 12.2461 3C11.0526 3 9.90803 3.47411 9.06411 4.31802C8.2202 5.16193 7.74609 6.30653 7.74609 7.5C7.74609 8.69347 8.2202 9.83807 9.06411 10.682C9.90803 11.5259 11.0526 12 12.2461 12Z" fill="#259EC5"/>
</svg>
