<svg width="17" height="16" viewBox="0 0 17 16" fill="none" xmlns="http://www.w3.org/2000/svg">
<path d="M15.4727 1.60742C15.8438 1.68555 16.0293 1.91016 16.0293 2.28125C16.0293 6.03125 14.7012 9.23438 12.0449 11.8906C9.38867 14.5469 6.18555 15.875 2.43555 15.875C2.06445 15.875 1.83984 15.6895 1.76172 15.3184L1.05859 12.2715C0.960938 11.9004 1.09766 11.6367 1.46875 11.4805L4.75 10.0742C5.0625 9.9375 5.33594 10.0059 5.57031 10.2793L7.00586 12.0371C8.1582 11.5098 9.17383 10.7969 10.0527 9.89844C10.9512 9 11.6641 7.98438 12.1914 6.85156L10.4336 5.38672C10.1602 5.17188 10.0918 4.89844 10.2285 4.56641L11.6348 1.28516C11.791 0.933594 12.0547 0.806641 12.4258 0.904297L15.4727 1.60742Z" fill="#EF623C"/>
</svg>
