<svg width="16" height="17" viewBox="0 0 16 17" fill="none" xmlns="http://www.w3.org/2000/svg">
<g clip-path="url(#clip0_19_1596)">
<path fill-rule="evenodd" clip-rule="evenodd" d="M3.64666 1.75115C3.58762 1.67521 3.51311 1.6127 3.42806 1.56777C3.34301 1.52284 3.24938 1.49653 3.15338 1.49057C3.05738 1.48461 2.96121 1.49915 2.87125 1.53321C2.7813 1.56728 2.69963 1.62009 2.63166 1.68815L1.59766 2.72315C1.11466 3.20715 0.936658 3.89215 1.14766 4.49315C2.0234 6.98073 3.44795 9.23924 5.31566 11.1011C7.17758 12.9688 9.43608 14.3934 11.9237 15.2691C12.5247 15.4801 13.2097 15.3021 13.6937 14.8191L14.7277 13.7851C14.7957 13.7172 14.8485 13.6355 14.8826 13.5456C14.9167 13.4556 14.9312 13.3594 14.9252 13.2634C14.9193 13.1674 14.893 13.0738 14.848 12.9887C14.8031 12.9037 14.7406 12.8292 14.6647 12.7701L12.3577 10.9761C12.2765 10.9132 12.1822 10.8695 12.0817 10.8484C11.9812 10.8273 11.8773 10.8292 11.7777 10.8541L9.58766 11.4011C9.29534 11.4742 8.98908 11.4703 8.6987 11.3899C8.40832 11.3095 8.14372 11.1552 7.93066 10.9421L5.47466 8.48515C5.26143 8.27218 5.10698 8.00763 5.02637 7.71725C4.94576 7.42686 4.94172 7.12055 5.01466 6.82815L5.56266 4.63815C5.58757 4.53854 5.58953 4.43458 5.56839 4.33411C5.54726 4.23364 5.50358 4.13928 5.44066 4.05815L3.64666 1.75115ZM1.87666 0.934147C2.05165 0.759096 2.26189 0.623277 2.4934 0.535708C2.72491 0.448139 2.9724 0.410823 3.21944 0.42624C3.46648 0.441656 3.70741 0.509451 3.92624 0.625123C4.14507 0.740796 4.33678 0.901698 4.48866 1.09715L6.28266 3.40315C6.61166 3.82615 6.72766 4.37715 6.59766 4.89715L6.05066 7.08715C6.02238 7.20058 6.0239 7.31939 6.05509 7.43206C6.08628 7.54472 6.14607 7.64741 6.22866 7.73015L8.68566 10.1871C8.76849 10.2699 8.87135 10.3298 8.98421 10.361C9.09707 10.3922 9.21608 10.3936 9.32966 10.3651L11.5187 9.81815C11.7753 9.75399 12.0431 9.749 12.3019 9.80357C12.5608 9.85814 12.8038 9.97084 13.0127 10.1331L15.3187 11.9271C16.1477 12.5721 16.2237 13.7971 15.4817 14.5381L14.4477 15.5721C13.7077 16.3121 12.6017 16.6371 11.5707 16.2741C8.93184 15.3457 6.53593 13.835 4.56066 11.8541C2.57995 9.87916 1.06927 7.48361 0.140658 4.84515C-0.221342 3.81515 0.103658 2.70815 0.843658 1.96815L1.87766 0.934147H1.87666Z" fill="#7C7C7C"/>
</g>
<defs>
<clipPath id="clip0_19_1596">
<rect width="16" height="16" fill="white" transform="translate(0 0.42749)"/>
</clipPath>
</defs>
</svg>
