<svg width="52" height="24" viewBox="0 0 52 24" fill="none" xmlns="http://www.w3.org/2000/svg">
<path d="M50.1626 23.9942H48.4186V0.0859034H51.6031V24C51.1225 23.9977 50.6425 23.9948 50.1626 23.9942ZM38.8129 23.9885V17.1802H41.9837V23.9879L38.8129 23.9885ZM10.0035 23.9885V17.1808H13.1765V23.9868L10.0035 23.9885ZM0.396851 23.9885V0.0957038H3.56935V23.9856L0.396851 23.9885ZM29.2062 23.9885V17.1831H32.3792V23.9845L29.2062 23.9885ZM19.604 23.9885V17.1791H22.7765V23.9845L19.604 23.9885ZM27.8058 13.7397C26.3588 13.5872 25.0028 12.9609 23.9482 11.9585C22.8936 10.9561 22.1996 9.63342 21.974 8.19604C21.3136 4.49554 23.5204 0.938164 26.9684 0.158014C27.2548 0.093284 27.548 0.0715055 27.8378 0.0291587C27.8814 0.0228672 27.9237 0.0102842 27.9661 0H28.6333C28.8527 0.0303687 29.0733 0.0572287 29.2914 0.0911062C30.6379 0.31179 31.8743 0.969796 32.8095 1.96344C32.8184 1.9732 32.8265 1.98373 32.8337 1.9949L30.5913 4.38786C30.2828 4.06287 29.9085 3.80757 29.4932 3.63906C29.078 3.47054 28.6315 3.39271 28.1839 3.41077C27.7361 3.42882 27.2974 3.54235 26.8971 3.74375C26.4968 3.94515 26.1442 4.22977 25.8628 4.57854C25.3352 5.23795 25.0501 6.05843 25.0549 6.90285C25.0597 7.74727 25.3542 8.56445 25.8891 9.21781C26.1726 9.56074 26.5258 9.8395 26.9251 10.0356C27.3245 10.2318 27.761 10.3408 28.2056 10.3555C28.6503 10.3701 29.093 10.2901 29.5045 10.1208C29.9158 9.95141 30.2866 9.69653 30.5921 9.37305L32.8373 11.7706C32.2588 12.3912 31.5602 12.8878 30.7841 13.2301C30.0078 13.5725 29.17 13.7535 28.3217 13.7621C28.1526 13.7621 27.981 13.7546 27.8064 13.7397H27.8058ZM38.8026 13.7322V3.48914H35.6125V0.10018H45.1854V3.48284H41.9952V13.7351L38.8026 13.7322ZM9.99784 13.7322V0.100785C10.0281 0.0947532 10.0587 0.0907115 10.0894 0.0886863C11.6986 0.0886863 13.3078 0.0554138 14.917 0.0949779C15.7397 0.104667 16.544 0.338733 17.2435 0.77194C17.9429 1.20515 18.5109 1.82106 18.8861 2.55327C20.6249 5.57804 18.9623 9.54776 15.6953 10.2092C15.3985 10.2647 15.0975 10.2949 14.7955 10.2997C14.3115 10.314 13.8263 10.3031 13.3419 10.3031H13.1795V13.7333L9.99784 13.7322ZM13.1892 3.49724V6.8891C13.7865 6.8891 14.3679 6.89201 14.9499 6.8891C15.0522 6.88273 15.1531 6.86171 15.2494 6.82667C15.6156 6.69849 15.9275 6.45023 16.1345 6.12225C16.3415 5.79427 16.4315 5.40589 16.3898 5.02028C16.3669 4.63819 16.2102 4.27638 15.9471 3.99836C15.6839 3.72035 15.3314 3.54391 14.9511 3.50003C14.5547 3.47317 14.156 3.47583 13.758 3.47994H13.2453C13.2273 3.48351 13.2097 3.48906 13.1927 3.49652L13.1892 3.49724Z" fill="#7020B3"/>
</svg>
