<svg width="20" height="24" viewBox="0 0 20 24" fill="none" xmlns="http://www.w3.org/2000/svg">
<path d="M12.2644 14.1566H6.921V12H12.2644C13.2992 12 14.1371 11.8352 14.7781 11.5055C15.4192 11.1758 15.8862 10.7179 16.1792 10.1319C16.4814 9.54579 16.6325 8.87729 16.6325 8.12637C16.6325 7.43956 16.4814 6.79396 16.1792 6.18956C15.8862 5.58516 15.4192 5.09982 14.7781 4.73352C14.1371 4.35806 13.2992 4.17033 12.2644 4.17033H7.53913V22H4.88803V2H12.2644C13.7754 2 15.0529 2.26099 16.0968 2.78297C17.1408 3.30494 17.9329 4.02839 18.4732 4.9533C19.0135 5.86905 19.2836 6.91758 19.2836 8.0989C19.2836 9.38095 19.0135 10.4753 18.4732 11.3819C17.9329 12.2885 17.1408 12.9799 16.0968 13.456C15.0529 13.9231 13.7754 14.1566 12.2644 14.1566Z" fill="#7020B3"/>
<path d="M0.716431 12H10.6619V14.1635H0.716431V12Z" fill="#7020B3"/>
<path d="M0.716431 15.9994H14.1192V18.1628H0.716431V15.9994Z" fill="#7020B3"/>
</svg>
