<svg width="21" height="21" viewBox="0 0 21 21" fill="none" xmlns="http://www.w3.org/2000/svg">
<g clip-path="url(#clip0_19_1564)">
<path fill-rule="evenodd" clip-rule="evenodd" d="M13.9384 13.4802C14.0544 13.364 14.1923 13.2718 14.3441 13.2089C14.4958 13.146 14.6585 13.1136 14.8227 13.1136C14.987 13.1136 15.1497 13.146 15.3014 13.2089C15.4532 13.2718 15.591 13.364 15.7071 13.4802L20.5196 18.2927C20.7542 18.5271 20.886 18.8451 20.8861 19.1767C20.8862 19.5083 20.7546 19.8263 20.5202 20.0609C20.2858 20.2954 19.9679 20.4273 19.6363 20.4274C19.3047 20.4275 18.9867 20.2959 18.7521 20.0615L13.9396 15.249C13.8234 15.1329 13.7312 14.995 13.6683 14.8433C13.6054 14.6915 13.573 14.5289 13.573 14.3646C13.573 14.2004 13.6054 14.0377 13.6683 13.8859C13.7312 13.7342 13.8234 13.5963 13.9396 13.4802H13.9384Z" fill="white"/>
<path fill-rule="evenodd" clip-rule="evenodd" d="M9.01233 15.4275C9.91517 15.4275 10.8092 15.2497 11.6433 14.9042C12.4774 14.5587 13.2353 14.0523 13.8737 13.4138C14.5121 12.7754 15.0185 12.0176 15.364 11.1834C15.7095 10.3493 15.8873 9.45533 15.8873 8.55249C15.8873 7.64965 15.7095 6.75566 15.364 5.92154C15.0185 5.08743 14.5121 4.32953 13.8737 3.69113C13.2353 3.05273 12.4774 2.54632 11.6433 2.20082C10.8092 1.85532 9.91517 1.67749 9.01233 1.67749C7.18897 1.67749 5.44028 2.40182 4.15097 3.69113C2.86166 4.98044 2.13733 6.72913 2.13733 8.55249C2.13733 10.3759 2.86166 12.1245 4.15097 13.4138C5.44028 14.7032 7.18897 15.4275 9.01233 15.4275ZM17.1373 8.55249C17.1373 10.7074 16.2813 12.774 14.7576 14.2977C13.2338 15.8215 11.1672 16.6775 9.01233 16.6775C6.85745 16.6775 4.79082 15.8215 3.26709 14.2977C1.74335 12.774 0.887329 10.7074 0.887329 8.55249C0.887329 6.39761 1.74335 4.33098 3.26709 2.80725C4.79082 1.28351 6.85745 0.42749 9.01233 0.42749C11.1672 0.42749 13.2338 1.28351 14.7576 2.80725C16.2813 4.33098 17.1373 6.39761 17.1373 8.55249Z" fill="white"/>
</g>
<defs>
<clipPath id="clip0_19_1564">
<rect width="20" height="20" fill="white" transform="translate(0.887329 0.42749)"/>
</clipPath>
</defs>
</svg>
