<svg width="14" height="15" viewBox="0 0 14 15" fill="none" xmlns="http://www.w3.org/2000/svg">
<path d="M9.07589 8.40963C8.84375 8.40963 8.39732 9.2757 8.12946 9.2757C8.05804 9.2757 7.99554 9.24892 7.93304 9.2132C7.43304 8.9632 6.99554 8.70428 6.58482 8.31142C6.24554 7.98999 5.87054 7.50785 5.67411 7.0882C5.64732 7.04356 5.62946 6.99892 5.62946 6.95428C5.62946 6.74892 6.24554 6.36499 6.24554 6.0257C6.24554 5.93642 5.79018 4.72213 5.72768 4.57035C5.63839 4.3382 5.59375 4.26678 5.35268 4.26678C5.23661 4.26678 5.12946 4.23999 5.02232 4.23999C4.83482 4.23999 4.69196 4.31142 4.55804 4.43642C4.12946 4.8382 3.91518 5.25785 3.89732 5.84713V5.91856C3.88839 6.53463 4.19196 7.1507 4.53125 7.6507C5.29911 8.78463 6.09375 9.7757 7.37054 10.3561C7.75446 10.5346 8.63839 10.9096 9.06697 10.9096C9.57589 10.9096 10.4062 10.5882 10.6116 10.0882C10.692 9.88285 10.7634 9.63285 10.7634 9.40963C10.7634 9.37392 10.7634 9.32035 10.7455 9.2757C10.683 9.16856 9.22768 8.40963 9.07589 8.40963ZM7.26339 13.1418C6.17411 13.1418 5.09375 12.8114 4.18304 12.2132L2.02232 12.9007L2.72768 10.8203C2.03125 9.86499 1.65625 8.7132 1.65625 7.53463C1.65625 4.44535 4.17411 1.92749 7.26339 1.92749C10.3527 1.92749 12.8705 4.44535 12.8705 7.53463C12.8705 10.6239 10.3527 13.1418 7.26339 13.1418ZM7.26339 0.802489C3.54911 0.802489 0.53125 3.82035 0.53125 7.53463C0.53125 8.75785 0.861607 9.9632 1.49554 11.0078L0.28125 14.6239L4.00446 13.4275C5.00446 13.9811 6.12946 14.2668 7.26339 14.2668C10.9777 14.2668 13.9955 11.2489 13.9955 7.53463C13.9955 3.82035 10.9777 0.802489 7.26339 0.802489Z" fill="#61EA76"/>
</svg>
