<svg width="19" height="13" viewBox="0 0 19 13" fill="none" xmlns="http://www.w3.org/2000/svg">
<path d="M18.2617 2.24219C18.3281 2.50781 18.3835 2.83984 18.4277 3.23828C18.4941 3.63672 18.5384 4.03516 18.5605 4.43359C18.5827 4.8099 18.5938 5.16406 18.5938 5.49609C18.6159 5.82812 18.627 6.10482 18.627 6.32617V6.625C18.627 8.61719 18.5052 10.0892 18.2617 11.041C18.151 11.4173 17.9518 11.7493 17.6641 12.0371C17.3763 12.3249 17.0332 12.5241 16.6348 12.6348C16.2142 12.7454 15.4173 12.834 14.2441 12.9004C13.071 12.9447 11.9974 12.9779 11.0234 13H9.5625C5.77734 13 3.41992 12.8783 2.49023 12.6348C1.62695 12.3913 1.08464 11.86 0.863281 11.041C0.752604 10.6204 0.664062 10.0449 0.597656 9.31445C0.553385 8.56185 0.520182 7.93099 0.498047 7.42188V6.625C0.498047 4.65495 0.619792 3.19401 0.863281 2.24219C0.973958 1.84375 1.17318 1.50065 1.46094 1.21289C1.7487 0.92513 2.0918 0.725911 2.49023 0.615234C2.91081 0.504557 3.70768 0.427083 4.88086 0.382812C6.05404 0.316406 7.1276 0.272135 8.10156 0.25H9.5625C13.3477 0.25 15.7051 0.371745 16.6348 0.615234C17.0332 0.725911 17.3763 0.92513 17.6641 1.21289C17.9518 1.50065 18.151 1.84375 18.2617 2.24219ZM7.70312 9.34766L12.4512 6.625L7.70312 3.93555V9.34766Z" fill="white"/>
</svg>
